{"title":"Warm Bodies 2013 720p BluRay QEBSx AAC20 MP4-FASM","uid":9025519,"size":2140524819,"categoryP":"video","categoryS":"hd___movies","magnet":"?xt=urn:btih:02f922023925248bb12eb983fd96bd0a066ed3e1&amp;dn=Warm+Bodies+2013+720p+BluRay+QEBSx+AAC20+MP4-FASM&amp;tr=udp%3A%2F%2Ftracker.openbittorrent.com%3A80&amp;tr=udp%3A%2F%2Fopen.demonii.com%3A1337&amp;tr=udp%3A%2F%2Ftracker.coppersurfer.tk%3A6969&amp;tr=udp%3A%2F%2Fexodus.desync.com%3A6969","seeders":4,"leechers":3,"uploader":"SaM","files":11,"time":1381363025,"description":"et can be opened with new url : extratorrent.cc\n\nRelease with the new improved QEBSx_2 engine.\n  &lt;a href=&quot;\nhttp://www.imdb.com/title/tt1588173/&quot; rel=&quot;nofollow&quot; target=&quot;_NEW&quot;&gt;\nhttp://www.imdb.com/title/tt1588173/&lt;/a&gt;\n\nSUBTITLES:\nENGLISH, POLISH others from other BluRay releases on subscene.com\n\nGeneral\nComplete name                  : Warm Bodies_2013_720p_BluRay_QEBSx_AAC20_MP4-FASM.mp4\nFormat                         : MPEG-4\nFormat profile                 : Base Media\nCodec ID                       : isom\nFile size                      : 1.96 GiB\nDuration                       : 1h 37mn\nOverall bit rate mode          : Variable\nOverall bit rate               : 2 873 Kbps\nEncoded date                   : UTC 2013-07-19 01:36:41\nTagged date                    : UTC 2013-07-19 01:36:41\n\nVideo\nID                             : 1\nFormat                         : AVC\nFormat/Info                    : Advanced Video Codec\nFormat profile                 : &lt;a class=&quot;__cf_email__&quot; href=&quot;/cdn-cgi/l/email-protection&quot; data-cfemail=&quot;6921000e0129255a4758&quot;&gt;[email&amp;#160;protected]&lt;/a&gt;&lt;script cf-hash='f9e31' type=&quot;text/javascript&quot;&gt;\n/* &lt;![CDATA[ */!function(){try{var t=&quot;currentScript&quot;in document?document.currentScript:function(){for(var t=document.getElementsByTagName(&quot;script&quot;),e=t.length;e--;)if(t[e].getAttribute(&quot;cf-hash&quot;))return t[e]}();if(t&amp;&amp;t.previousSibling){var e,r,n,i,c=t.previousSibling,a=c.getAttribute(&quot;data-cfemail&quot;);if(a){for(e=&quot;&quot;,r=parseInt(a.substr(0,2),16),n=2;a.length-n;n+=2)i=parseInt(a.substr(n,2),16)^r,e+=String.fromCharCode(i);e=document.createTextNode(e),c.parentNode.replaceChild(e,c)}}}catch(u){}}();/* ]]&gt; */&lt;/script&gt;\nFormat settings, CABAC         : Yes\nFormat settings, ReFrames      : 5 frames\nCodec ID                       : avc1\nCodec ID/Info                  : Advanced Video Coding\nDuration                       : 1h 37mn\nBit rate                       : 2 721 Kbps\nMaximum bit rate               : 6 273 Kbps\nWidth                          : 1 280 pixels\nHeight                         : 528 pixels\nDisplay aspect ratio           : 2.40:1\nFrame rate mode                : Constant\nFrame rate                     : 23.976 fps\nColor space                    : YUV\nChroma subsampling             : 4:2:0\nBit depth                      : 8 bits\nScan type                      : Progressive\nBits/(Pixel*Frame)             : 0.168\nStream size                    : 1.86 GiB (95%)\nTitle                          : 1280x528.264#trackID=1:fps=23.976 - Imported with GPAC 0.5.0-rev4065\nWriting library                : FASM Quality Enhancer Bitrate Squeezer X.2 (c)2013 Fachman\nEncoded date                   : UTC 2013-07-19 01:36:41\nTagged date                    : UTC 2013-07-19 01:37:43\nColor primaries                : BT.709\nTransfer characteristics       : BT.709\nMatrix coefficients            : BT.709\n\nAudio\nID                             : 2\nFormat                         : AAC\nFormat/Info                    : Advanced Audio Codec\nFormat profile                 : LC\nCodec ID                       : 40\nDuration                       : 1h 37mn\nBit rate mode                  : Variable\nBit rate                       : 148 Kbps\nMaximum bit rate               : 203 Kbps\nChannel(s)                     : 2 channels\nChannel positions              : Front: L R\nSampling rate                  : 48.0 KHz\nCompression mode               : Lossy\nStream size                    : 103 MiB (5%)\nLanguage                       : English\nEncoded date                   : UTC 2013-07-19 01:37:39\nTagged date                    : UTC 2013-07-19 01:37:43\n\n \n\nThere was a mess up while creating the earlier torrent file of this movies..\nplease remove old torrent (dont delete from client) and re add this new one to complete the download \n\nScreens:\n &lt;a href=&quot;\nhttp://s6.postimg.org/89dwu4fs1/84561f2.png&quot; rel=&quot;nofollow&quot; target=&quot;_NEW&quot;&gt;\nhttp://s6.postimg.org/89dwu4fs1/84561f2.png&lt;/a&gt;\n  &lt;a href=&quot;\nhttp://s6.postimg.org/nw567htk1/4284f2.png&quot; rel=&quot;nofollow&quot; target=&quot;_NEW&quot;&gt;\nhttp://s6.postimg.org/nw567htk1/4284f2.png&lt;/a&gt;\n  &lt;a href=&quot;\nhttp://s6.postimg.org/m5m560c0x/34169f2.png&quot; rel=&quot;nofollow&quot; target=&quot;_NEW&quot;&gt;\nhttp://s6.postimg.org/m5m560c0x/34169f2.png&lt;/a&gt;\n  &lt;a href=&quot;\nhttp://s6.postimg.org/kruiapcrl/127471f2.png&quot; rel=&quot;nofollow&quot; target=&quot;_NEW&quot;&gt;\nhttp://s6.postimg.org/kruiapcrl/127471f2.png&lt;/a&gt;\n\t\t","torrent":{"xt":"urn:btih:02f922023925248bb12eb983fd96bd0a066ed3e1","amp;dn":"Warm+Bodies+2013+720p+BluRay+QEBSx+AAC20+MP4-FASM","amp;tr":["udp%3A%2F%2Ftracker.openbittorrent.com%3A80","udp%3A%2F%2Fopen.demonii.com%3A1337","udp%3A%2F%2Ftracker.coppersurfer.tk%3A6969","udp%3A%2F%2Fexodus.desync.com%3A6969"],"infoHash":"02f922023925248bb12eb983fd96bd0a066ed3e1","infoHashBuffer":{"type":"Buffer","data":[2,249,34,2,57,37,36,139,177,46,185,131,253,150,189,10,6,110,211,225]},"announce":[],"urlList":[]}}